<?xml version="1.0" encoding="UTF-8" standalone="no" ?>
<!DOCTYPE svg PUBLIC "-//W3C//DTD SVG 1.1//EN" "http://www.w3.org/Graphics/SVG/1.1/DTD/svg11.dtd">
<svg xmlns="http://www.w3.org/2000/svg" xmlns:xlink="http://www.w3.org/1999/xlink" version="1.1" width="120" height="40" viewBox="0 0 120 40" xml:space="preserve">
<desc>Created with Fabric.js 5.2.4</desc>
<defs>
</defs>
<rect x="0" y="0" width="100%" height="100%" fill="transparent"></rect>
<g transform="matrix(0 0 0 0 0 0)" id="210e9a47-e66a-4e55-979a-fb604caa61ae"  >
</g>
<g transform="matrix(1 0 0 1 60 20)" id="dbfa49bb-e500-4de9-9537-0b38c6eba45a"  >
<rect style="stroke: none; stroke-width: 1; stroke-dasharray: none; stroke-linecap: butt; stroke-dashoffset: 0; stroke-linejoin: miter; stroke-miterlimit: 4; fill: rgb(255,255,255); fill-rule: nonzero; opacity: 1; visibility: hidden;" vector-effect="non-scaling-stroke"  x="-60" y="-20" rx="0" ry="0" width="120" height="40" />
</g>
<g transform="matrix(0.01 0 0 0.01 77.86 20.76)"  >
<g style="" vector-effect="non-scaling-stroke"   >
		<g transform="matrix(1 0 0 1 -67.31 -17.36)"  >
<path style="stroke: none; stroke-width: 1; stroke-dasharray: none; stroke-linecap: butt; stroke-dashoffset: 0; stroke-linejoin: miter; stroke-miterlimit: 4; fill: rgb(239,125,0); fill-rule: nonzero; opacity: 1;" vector-effect="non-scaling-stroke"  transform=" translate(-16.24, -2.65)" d="M 16.2368 5.30286 C 17.7101 5.30286 18.9045 4.11577 18.9045 2.65143 C 18.9045 1.18709 17.7101 0 16.2368 0 C 14.7634 0 13.569 1.18709 13.569 2.65143 C 13.569 4.11577 14.7634 5.30286 16.2368 5.30286 Z" stroke-linecap="round" />
</g>
		<g transform="matrix(1 0 0 1 -80.01 -5.2)"  >
<path style="stroke: none; stroke-width: 1; stroke-dasharray: none; stroke-linecap: butt; stroke-dashoffset: 0; stroke-linejoin: miter; stroke-miterlimit: 4; fill: rgb(38,96,168); fill-rule: nonzero; opacity: 1;" vector-effect="non-scaling-stroke"  transform=" translate(-3.54, -14.81)" d="M 3.54172 18.331 C 5.49776 18.331 7.08344 16.7551 7.08344 14.811 C 7.08344 12.867 5.49776 11.291 3.54172 11.291 C 1.58568 11.291 0 12.867 0 14.811 C 0 16.7551 1.58568 18.331 3.54172 18.331 Z" stroke-linecap="round" />
</g>
		<g transform="matrix(1 0 0 1 -70.03 5.45)"  >
<path style="stroke: none; stroke-width: 1; stroke-dasharray: none; stroke-linecap: butt; stroke-dashoffset: 0; stroke-linejoin: miter; stroke-miterlimit: 4; fill: rgb(38,96,168); fill-rule: nonzero; opacity: 1;" vector-effect="non-scaling-stroke"  transform=" translate(-13.52, -25.46)" d="M 13.5229 28.9824 C 15.479 28.9824 17.0646 27.4064 17.0646 25.4624 C 17.0646 23.5183 15.479 21.9424 13.5229 21.9424 C 11.5669 21.9424 9.9812 23.5183 9.9812 25.4624 C 9.9812 27.4064 11.5669 28.9824 13.5229 28.9824 Z" stroke-linecap="round" />
</g>
		<g transform="matrix(1 0 0 1 -59.68 -17.54)"  >
<path style="stroke: none; stroke-width: 1; stroke-dasharray: none; stroke-linecap: butt; stroke-dashoffset: 0; stroke-linejoin: miter; stroke-miterlimit: 4; fill: rgb(239,125,0); fill-rule: nonzero; opacity: 1;" vector-effect="non-scaling-stroke"  transform=" translate(-23.87, -2.47)" d="M 23.8721 4.93714 C 25.2439 4.93714 26.3559 3.83193 26.3559 2.46857 C 26.3559 1.10522 25.2439 0 23.8721 0 C 22.5003 0 21.3883 1.10522 21.3883 2.46857 C 21.3883 3.83193 22.5003 4.93714 23.8721 4.93714 Z" stroke-linecap="round" />
</g>
		<g transform="matrix(1 0 0 1 -51.77 -17.54)"  >
<path style="stroke: none; stroke-width: 1; stroke-dasharray: none; stroke-linecap: butt; stroke-dashoffset: 0; stroke-linejoin: miter; stroke-miterlimit: 4; fill: rgb(239,125,0); fill-rule: nonzero; opacity: 1;" vector-effect="non-scaling-stroke"  transform=" translate(-31.78, -2.47)" d="M 31.7835 4.93714 C 33.1553 4.93714 34.2673 3.83193 34.2673 2.46857 C 34.2673 1.10522 33.1553 0 31.7835 0 C 30.4117 0 29.2997 1.10522 29.2997 2.46857 C 29.2997 3.83193 30.4117 4.93714 31.7835 4.93714 Z" stroke-linecap="round" />
</g>
		<g transform="matrix(1 0 0 1 -59.68 0.61)"  >
<path style="stroke: none; stroke-width: 1; stroke-dasharray: none; stroke-linecap: butt; stroke-dashoffset: 0; stroke-linejoin: miter; stroke-miterlimit: 4; fill: rgb(239,125,0); fill-rule: nonzero; opacity: 1;" vector-effect="non-scaling-stroke"  transform=" translate(-23.87, -20.62)" d="M 23.8721 23.0856 C 25.2439 23.0856 26.3559 21.9804 26.3559 20.617 C 26.3559 19.2537 25.2439 18.1484 23.8721 18.1484 C 22.5003 18.1484 21.3883 19.2537 21.3883 20.617 C 21.3883 21.9804 22.5003 23.0856 23.8721 23.0856 Z" stroke-linecap="round" />
</g>
		<g transform="matrix(1 0 0 1 -69.98 16.38)"  >
<path style="stroke: none; stroke-width: 1; stroke-dasharray: none; stroke-linecap: butt; stroke-dashoffset: 0; stroke-linejoin: miter; stroke-miterlimit: 4; fill: rgb(38,96,168); fill-rule: nonzero; opacity: 1;" vector-effect="non-scaling-stroke"  transform=" translate(-13.57, -36.39)" d="M 13.5689 39.9547 C 15.5504 39.9547 17.1566 38.3582 17.1566 36.389 C 17.1566 34.4197 15.5504 32.8232 13.5689 32.8232 C 11.5875 32.8232 9.9812 34.4197 9.9812 36.389 C 9.9812 38.3582 11.5875 39.9547 13.5689 39.9547 Z" stroke-linecap="round" />
</g>
		<g transform="matrix(1 0 0 1 -65.38 -6.41)"  >
<linearGradient id="SVGID_20" gradientUnits="userSpaceOnUse" gradientTransform="matrix(1 0 0 1 0 0)"  x1="13.8901" y1="17.1009" x2="25.0143" y2="5.90341">
<stop offset="0%" style="stop-color:rgb(38,96,168);stop-opacity: 1"/>
<stop offset="10%" style="stop-color:rgb(48,97,160);stop-opacity: 1"/>
<stop offset="27%" style="stop-color:rgb(74,101,138);stop-opacity: 1"/>
<stop offset="49%" style="stop-color:rgb(117,107,102);stop-opacity: 1"/>
<stop offset="75%" style="stop-color:rgb(175,116,54);stop-opacity: 1"/>
<stop offset="100%" style="stop-color:rgb(239,125,0);stop-opacity: 1"/>
</linearGradient>
<path style="stroke: none; stroke-width: 1; stroke-dasharray: none; stroke-linecap: butt; stroke-dashoffset: 0; stroke-linejoin: miter; stroke-miterlimit: 4; fill: url(#SVGID_20); fill-rule: nonzero; opacity: 1;" vector-effect="non-scaling-stroke"  transform=" translate(-18.18, -13.59)" d="M 26.218 10.423 C 25.712 9.23438 24.4241 8.59438 23.1822 8.9601 C 22.3083 9.23438 21.6643 9.9201 21.4803 10.7887 C 21.3883 11.1087 21.2044 11.383 20.9744 11.6115 C 19.5485 12.6172 17.7546 12.8001 16.1448 12.1601 C 15.8688 12.0687 15.5468 11.9315 15.2708 11.7487 C 15.1328 11.6572 14.9489 11.6115 14.8109 11.5201 L 14.7189 11.5201 C 13.9369 11.2001 13.063 11.2001 12.2351 11.5201 C 10.3952 12.2515 9.52128 14.263 10.2112 16.0915 C 10.9012 17.8287 12.833 18.743 14.6269 18.1487 C 15.3628 17.9201 16.0068 17.4172 16.4207 16.7772 C 16.5127 16.6401 16.6047 16.4572 16.6967 16.3201 C 16.6967 16.3201 18.9505 12.5715 21.8023 13.0287 C 22.0323 13.1201 22.2623 13.2115 22.4923 13.3487 C 23.1362 13.8058 23.9181 13.8972 24.6541 13.6687 C 25.942 13.2572 26.6779 11.8401 26.264 10.5601 C 26.218 10.5144 26.218 10.4687 26.218 10.423 Z" stroke-linecap="round" />
</g>
		<g transform="matrix(1 0 0 1 -43.93 10.46)"  >
<path style="stroke: none; stroke-width: 1; stroke-dasharray: none; stroke-linecap: butt; stroke-dashoffset: 0; stroke-linejoin: miter; stroke-miterlimit: 4; fill: rgb(38,96,168); fill-rule: nonzero; opacity: 1;" vector-effect="non-scaling-stroke"  transform=" translate(-39.63, -30.47)" d="M 32.6115 20.9824 L 46.6403 20.9824 L 46.6403 24.5481 L 41.4887 24.5481 L 41.4887 39.9539 L 37.717 39.9539 L 37.717 24.5481 L 32.6115 24.5481 L 32.6115 20.9824 Z" stroke-linecap="round" />
</g>
		<g transform="matrix(1 0 0 1 -31.76 12.99)"  >
<path style="stroke: none; stroke-width: 1; stroke-dasharray: none; stroke-linecap: butt; stroke-dashoffset: 0; stroke-linejoin: miter; stroke-miterlimit: 4; fill: rgb(38,96,168); fill-rule: nonzero; opacity: 1;" vector-effect="non-scaling-stroke"  transform=" translate(-51.79, -33.01)" d="M 51.47 26.3768 L 51.47 28.7083 C 51.7459 27.8854 52.2979 27.1997 53.0338 26.7883 C 53.8158 26.3311 54.6897 26.1025 55.6096 26.1025 L 55.6096 29.9883 C 54.5977 29.8511 53.5398 30.0797 52.7119 30.6283 C 51.8839 31.1768 51.47 32.1368 51.47 33.4168 L 51.47 39.9083 L 47.9742 39.9083 L 47.9742 26.3768 L 51.47 26.3768 Z" stroke-linecap="round" />
</g>
		<g transform="matrix(1 0 0 1 29.34 10.46)"  >
<path style="stroke: none; stroke-width: 1; stroke-dasharray: none; stroke-linecap: butt; stroke-dashoffset: 0; stroke-linejoin: miter; stroke-miterlimit: 4; fill: rgb(239,125,0); fill-rule: nonzero; opacity: 1;" vector-effect="non-scaling-stroke"  transform=" translate(-112.9, -30.47)" d="M 105.884 20.9824 L 119.913 20.9824 L 119.913 24.5481 L 114.761 24.5481 L 114.761 39.9539 L 110.989 39.9539 L 110.989 24.5481 L 105.884 24.5481 L 105.884 20.9824 Z" stroke-linecap="round" />
</g>
		<g transform="matrix(1 0 0 1 41.51 12.99)"  >
<path style="stroke: none; stroke-width: 1; stroke-dasharray: none; stroke-linecap: butt; stroke-dashoffset: 0; stroke-linejoin: miter; stroke-miterlimit: 4; fill: rgb(239,125,0); fill-rule: nonzero; opacity: 1;" vector-effect="non-scaling-stroke"  transform=" translate(-125.06, -33.01)" d="M 124.742 26.3768 L 124.742 28.7083 C 125.018 27.8854 125.57 27.1997 126.306 26.7883 C 127.088 26.3311 127.962 26.1025 128.882 26.1025 L 128.882 29.9883 C 127.87 29.8511 126.858 30.0797 125.984 30.6283 C 125.156 31.1768 124.742 32.1368 124.742 33.4168 L 124.742 39.9083 L 121.246 39.9083 L 121.246 26.3768 L 124.742 26.3768 Z" stroke-linecap="round" />
</g>
		<g transform="matrix(1 0 0 1 67.64 12.79)"  >
<path style="stroke: none; stroke-width: 1; stroke-dasharray: none; stroke-linecap: butt; stroke-dashoffset: 0; stroke-linejoin: miter; stroke-miterlimit: 4; fill: rgb(239,125,0); fill-rule: nonzero; opacity: 1;" vector-effect="non-scaling-stroke"  transform=" translate(-151.19, -32.8)" d="M 149.764 29.851 C 149.764 30.4453 150.592 30.9025 152.248 31.3596 C 152.8 31.4968 153.306 31.6339 153.812 31.8168 C 154.318 31.9996 154.778 32.2282 155.238 32.5482 C 155.698 32.8682 156.112 33.2796 156.388 33.8282 C 156.664 34.3768 156.802 35.0168 156.802 35.6568 C 156.848 36.9368 156.25 38.1253 155.238 38.9025 C 154.088 39.6796 152.708 40.0453 151.328 39.9996 C 148.522 39.9996 146.636 38.9025 145.578 36.7539 L 148.614 35.0625 C 149.028 36.251 149.948 36.8453 151.282 36.8453 C 152.524 36.8453 153.168 36.4796 153.168 35.6568 C 153.168 35.0625 152.34 34.6053 150.684 34.1482 C 150.04 33.9653 149.534 33.8282 149.12 33.6453 C 148.614 33.4625 148.154 33.2339 147.694 32.9139 C 147.188 32.6396 146.82 32.1825 146.544 31.6796 C 146.268 31.131 146.13 30.5368 146.13 29.9425 C 146.084 28.7082 146.636 27.5653 147.602 26.7882 C 148.66 26.011 149.994 25.5996 151.328 25.5996 C 152.386 25.5996 153.444 25.8282 154.364 26.331 C 155.284 26.8339 156.02 27.5653 156.526 28.4796 L 153.536 30.1253 C 153.168 29.2568 152.294 28.7082 151.328 28.7539 C 150.914 28.7539 150.546 28.8453 150.178 29.0739 C 149.948 29.2568 149.81 29.531 149.764 29.851 Z" stroke-linecap="round" />
</g>
		<g transform="matrix(1 0 0 1 79.05 11.24)"  >
<path style="stroke: none; stroke-width: 1; stroke-dasharray: none; stroke-linecap: butt; stroke-dashoffset: 0; stroke-linejoin: miter; stroke-miterlimit: 4; fill: rgb(239,125,0); fill-rule: nonzero; opacity: 1;" vector-effect="non-scaling-stroke"  transform=" translate(-162.6, -31.26)" d="M 167.059 26.2398 L 167.059 29.6226 L 163.977 29.6226 L 163.977 35.2912 C 163.931 35.6569 164.069 36.0684 164.345 36.3426 C 164.621 36.5712 164.989 36.7084 165.403 36.7084 C 165.955 36.7541 166.553 36.7541 167.105 36.7084 L 167.105 39.9084 C 164.713 40.1826 163.011 39.9541 161.999 39.2226 C 160.987 38.4912 160.481 37.2112 160.481 35.3369 L 160.481 29.6226 L 158.09 29.6226 L 158.09 26.2855 L 160.481 26.2855 L 160.481 23.5426 L 164.023 22.4912 L 164.023 26.2855 L 167.059 26.2855 L 167.059 26.2398 Z" stroke-linecap="round" />
</g>
		<g transform="matrix(1 0 0 1 54.06 13.15)"  >
<path style="stroke: none; stroke-width: 1; stroke-dasharray: none; stroke-linecap: butt; stroke-dashoffset: 0; stroke-linejoin: miter; stroke-miterlimit: 4; fill: rgb(239,125,0); fill-rule: nonzero; opacity: 1;" vector-effect="non-scaling-stroke"  transform=" translate(-137.62, -33.16)" d="M 134.907 26.4229 L 134.907 33.6914 C 134.907 35.4286 135.735 36.48 137.621 36.48 C 139.507 36.48 140.335 35.4286 140.335 33.6914 L 140.335 26.4229 L 143.831 26.4229 L 143.831 33.7371 C 143.831 34.6971 143.693 35.6571 143.371 36.5714 C 143.049 37.3486 142.543 37.9886 141.945 38.4914 C 139.369 40.3657 135.873 40.3657 133.298 38.4914 C 132.654 37.9886 132.148 37.3029 131.826 36.5714 C 131.504 35.6571 131.366 34.6971 131.412 33.7371 L 131.412 26.4229 L 134.907 26.4229 Z" stroke-linecap="round" />
</g>
		<g transform="matrix(1 0 0 1 -19.32 12.75)"  >
<path style="stroke: none; stroke-width: 1; stroke-dasharray: none; stroke-linecap: butt; stroke-dashoffset: 0; stroke-linejoin: miter; stroke-miterlimit: 4; fill: rgb(38,96,168); fill-rule: nonzero; opacity: 1;" vector-effect="non-scaling-stroke"  transform=" translate(-64.23, -32.76)" d="M 68.0286 27.611 L 68.0286 26.011 L 71.5243 26.011 L 71.5243 39.5425 L 68.0286 39.5425 L 68.0286 37.9425 C 66.9707 39.2682 65.3148 39.9996 63.567 39.9082 C 61.7731 39.9082 60.0712 39.1768 58.8753 37.851 C 56.2995 34.9253 56.2995 30.5825 58.8753 27.7025 C 60.0712 26.3768 61.7731 25.5996 63.567 25.5996 C 65.4988 25.6453 66.9707 26.2853 68.0286 27.611 Z M 60.4852 32.8225 C 60.4852 34.7882 62.0951 36.3882 64.0729 36.3882 C 66.0508 36.3882 67.6606 34.7882 67.6606 32.8225 C 67.6606 30.8568 66.0508 29.2568 64.0729 29.2568 C 62.0951 29.2568 60.4852 30.811 60.4852 32.8225 Z" stroke-linecap="round" />
</g>
		<g transform="matrix(1 0 0 1 -2.25 10.23)"  >
<path style="stroke: none; stroke-width: 1; stroke-dasharray: none; stroke-linecap: butt; stroke-dashoffset: 0; stroke-linejoin: miter; stroke-miterlimit: 4; fill: rgb(38,96,168); fill-rule: nonzero; opacity: 1;" vector-effect="non-scaling-stroke"  transform=" translate(-81.3, -30.24)" d="M 85.0933 27.6113 L 85.0933 20.5713 L 88.589 20.5713 L 88.589 39.5427 L 85.0933 39.5427 L 85.0933 37.9427 C 84.0354 39.2684 82.5635 39.9084 80.6776 39.9084 C 78.8838 39.9084 77.1819 39.177 75.94 37.8513 C 73.3642 34.9256 73.3642 30.5827 75.94 27.7027 C 77.1359 26.377 78.8378 25.5999 80.6317 25.5999 C 82.5635 25.6456 84.0354 26.2856 85.0933 27.6113 Z M 77.5039 32.8227 C 77.5039 34.7884 79.1138 36.3884 81.0916 36.3884 C 83.0695 36.3884 84.6793 34.7884 84.6793 32.8227 C 84.6793 30.857 83.0695 29.257 81.0916 29.257 C 79.1598 29.257 77.5499 30.8113 77.5039 32.8227 Z" stroke-linecap="round" />
</g>
		<g transform="matrix(1 0 0 1 14.02 12.76)"  >
<path style="stroke: none; stroke-width: 1; stroke-dasharray: none; stroke-linecap: butt; stroke-dashoffset: 0; stroke-linejoin: miter; stroke-miterlimit: 4; fill: rgb(38,96,168); fill-rule: nonzero; opacity: 1;" vector-effect="non-scaling-stroke"  transform=" translate(-97.58, -32.77)" d="M 104.458 34.1943 L 94.1545 34.1943 C 94.6145 35.8858 95.9024 36.7543 98.0182 36.7543 C 99.2141 36.8457 100.364 36.2972 101.1 35.3829 L 103.952 37.0286 C 102.618 38.9943 100.594 39.9543 97.9722 39.9543 C 95.7184 39.9543 93.8786 39.2686 92.5447 37.8972 C 89.8309 35.0172 89.8309 30.5372 92.4987 27.6572 C 93.8786 26.2857 95.7644 25.5086 97.7423 25.6 C 99.6281 25.5543 101.422 26.2857 102.71 27.6572 C 103.998 29.0286 104.734 30.8572 104.642 32.7772 C 104.55 33.2343 104.504 33.7372 104.458 34.1943 Z M 94.0625 31.4515 L 101.054 31.4515 C 100.778 29.8057 99.3061 28.6629 97.6503 28.7086 C 96.8223 28.6629 95.9944 28.9372 95.3044 29.44 C 94.6605 29.9429 94.2465 30.6743 94.0625 31.4515 Z" stroke-linecap="round" />
</g>
</g>
</g>
<g transform="matrix(1 0 0 1 60 20)"  >
<rect style="stroke: none; stroke-width: 1; stroke-dasharray: none; stroke-linecap: butt; stroke-dashoffset: 0; stroke-linejoin: miter; stroke-miterlimit: 4; fill: rgb(255,255,255); fill-rule: nonzero; opacity: 1; visibility: hidden;" vector-effect="non-scaling-stroke"  x="-540" y="-540" rx="0" ry="0" width="1080" height="1080" />
</g>
<g transform="matrix(0.02 0 0 -0.02 25.31 17.45)"  >
<path style="stroke: none; stroke-width: 1; stroke-dasharray: none; stroke-linecap: butt; stroke-dashoffset: 0; stroke-linejoin: miter; stroke-miterlimit: 4; fill: rgb(26,100,183); fill-rule: nonzero; opacity: 1;" vector-effect="non-scaling-stroke"  transform=" translate(-1947.19, -6009.45)" d="M 1594.21 5312.73 C 2239.59 5958.11 2496.8 6370.0199999999995 2402.1800000000003 6464.629999999999 C 2307.59 6559.23 1894.1000000000004 6300.379999999999 1250.6700000000003 5656.959999999999 C 1327.6600000000003 5744.069999999999 1412.3000000000002 5832.629999999999 1501.8300000000004 5922.149999999999 C 2024.5200000000004 6444.839999999998 2532.8500000000004 6785.269999999999 2627.8300000000004 6690.289999999999 C 2722.82 6595.299999999999 2382.4200000000005 6088.269999999999 1859.7200000000003 5565.589999999999 C 1769.9200000000003 5475.779999999999 1681.0900000000001 5390.489999999999 1594.2100000000003 5312.73" stroke-linecap="round" />
</g>
<g transform="matrix(0.02 0 0 -0.02 25.76 24.93)"  >
<path style="stroke: none; stroke-width: 1; stroke-dasharray: none; stroke-linecap: butt; stroke-dashoffset: 0; stroke-linejoin: miter; stroke-miterlimit: 4; fill: rgb(26,100,183); fill-rule: nonzero; opacity: 1;" vector-effect="non-scaling-stroke"  transform=" translate(-1984.88, -5628.26)" d="M 2337.86 6324.98 C 1692.48 5679.6 1435.28 5267.7 1529.89 5173.08 C 1624.49 5078.48 2037.97 5337.34 2681.4 5980.75 C 2604.4100000000003 5893.64 2519.77 5805.09 2430.25 5715.57 C 1907.55 5192.879999999999 1399.22 4852.45 1304.24 4947.429999999999 C 1209.26 5042.409999999999 1549.66 5549.44 2072.35 6072.129999999999 C 2162.16 6161.929999999999 2250.99 6247.23 2337.8599999999997 6324.98" stroke-linecap="round" />
</g>
<g transform="matrix(0.03 0 0 -0.03 49.36 22.12)"  >
<path style="stroke: none; stroke-width: 1; stroke-dasharray: none; stroke-linecap: butt; stroke-dashoffset: 0; stroke-linejoin: miter; stroke-miterlimit: 4; fill: rgb(35,31,32); fill-rule: nonzero; opacity: 1;" vector-effect="non-scaling-stroke"  transform=" translate(-926.99, -4280.24)" d="M 883.445 3887.59 L 883.445 4672.88 L 970.527 4672.88 L 970.527 3887.59 L 883.445 3887.59" stroke-linecap="round" />
</g>
<g transform="matrix(0.03 0 0 -0.03 83.61 22.12)"  >
<path style="stroke: none; stroke-width: 1; stroke-dasharray: none; stroke-linecap: butt; stroke-dashoffset: 0; stroke-linejoin: miter; stroke-miterlimit: 4; fill: rgb(35,31,32); fill-rule: nonzero; opacity: 1;" vector-effect="non-scaling-stroke"  transform=" translate(-2110.07, -4280.24)" d="M 2066.53 3887.59 L 2066.52 4592.2300000000005 L 1811.5 4592.2300000000005 L 1811.5 4672.88 L 2408.63 4672.88 L 2408.63 4592.2300000000005 L 2153.61 4592.2300000000005 L 2153.61 3887.5900000000006 L 2066.53 3887.5900000000006" stroke-linecap="round" />
</g>
<g transform="matrix(0.03 0 0 -0.03 100.88 22.12)"  >
<path style="stroke: none; stroke-width: 1; stroke-dasharray: none; stroke-linecap: butt; stroke-dashoffset: 0; stroke-linejoin: miter; stroke-miterlimit: 4; fill: rgb(35,31,32); fill-rule: nonzero; opacity: 1;" vector-effect="non-scaling-stroke"  transform=" translate(-2710.61, -4280.24)" d="M 2883.44 4124.71 L 2710.61 4604.82 L 2537.77 4124.71 z M 3055.88 3887.59 L 2968.8 3887.59 L 2909.36 4052.71 L 2511.8500000000004 4052.71 L 2452.4100000000003 3887.59 L 2365.3300000000004 3887.59 L 2648.0200000000004 4672.88 L 2686.1100000000006 4672.88 L 2735.1000000000004 4672.88 L 2773.2000000000003 4672.88 L 3055.88 3887.59" stroke-linecap="round" />
</g>
<g transform="matrix(0.03 0 0 -0.03 63.48 22.19)"  >
<path style="stroke: none; stroke-width: 1; stroke-dasharray: none; stroke-linecap: butt; stroke-dashoffset: 0; stroke-linejoin: miter; stroke-miterlimit: 4; fill: rgb(35,31,32); fill-rule: nonzero; opacity: 1;" vector-effect="non-scaling-stroke"  transform=" translate(-1406.81, -4278.01)" d="M 1717.66 4407.91 C 1717.42 4454.15 1717.42 4507.75 1717.42 4507.75 C 1717.42 4611.44 1673.88 4678.02 1482.8400000000001 4678.02 L 1379.68 4678.02 L 1330.53 4678.02 C 1139.49 4678.02 1095.95 4611.4400000000005 1095.95 4507.75 L 1095.95 4176.89 L 1095.95 4048.2500000000005 C 1095.95 3944.5700000000006 1139.49 3877.9900000000007 1330.53 3877.9900000000007 L 1379.68 3877.9900000000007 L 1433.69 3877.9900000000007 L 1482.8400000000001 3877.9900000000007 C 1673.88 3877.9900000000007 1717.42 3944.5700000000006 1717.42 4048.250000000001 L 1717.42 4152.550000000001 L 1630.3400000000001 4152.550000000001 L 1630.3400000000001 4058.8100000000013 C 1630.3400000000001 4013.6900000000014 1613.4 3965.0700000000015 1481.88 3965.0700000000015 L 1380.3000000000002 3965.0700000000015 L 1331.4900000000002 3965.0700000000015 C 1199.9700000000003 3965.0700000000015 1183.0300000000002 4013.6900000000014 1183.0300000000002 4058.8100000000013 L 1183.0300000000002 4373.130000000001 L 1183.0300000000002 4497.200000000001 C 1183.0300000000002 4542.320000000001 1199.9700000000003 4590.9400000000005 1331.4900000000002 4590.9400000000005 L 1380.3000000000002 4590.9400000000005 L 1481.88 4590.9400000000005 C 1613.4 4590.9400000000005 1630.3400000000001 4542.320000000001 1630.3400000000001 4497.200000000001 L 1630.3400000000001 4407.910000000001 L 1717.66 4407.910000000001" stroke-linecap="round" />
</g>
<g transform="matrix(0.02 0 0 -0.02 11.73 23.83)"  >
<path style="stroke: none; stroke-width: 1; stroke-dasharray: none; stroke-linecap: butt; stroke-dashoffset: 0; stroke-linejoin: miter; stroke-miterlimit: 4; fill: rgb(174,172,172); fill-rule: nonzero; opacity: 1;" vector-effect="non-scaling-stroke"  transform=" translate(-1283.27, -5691.73)" d="M 1222.18 5752.82 C 1255.92 5786.5599999999995 1310.63 5786.5599999999995 1344.3700000000001 5752.82 C 1378.1100000000001 5719.08 1378.1100000000001 5664.38 1344.3700000000001 5630.63 C 1310.63 5596.89 1255.92 5596.89 1222.18 5630.63 C 1188.43 5664.38 1188.44 5719.08 1222.18 5752.82" stroke-linecap="round" />
</g>
<g transform="matrix(0.02 0 0 -0.02 39.45 18.68)"  >
<path style="stroke: none; stroke-width: 1; stroke-dasharray: none; stroke-linecap: butt; stroke-dashoffset: 0; stroke-linejoin: miter; stroke-miterlimit: 4; fill: rgb(174,172,172); fill-rule: nonzero; opacity: 1;" vector-effect="non-scaling-stroke"  transform=" translate(-2647.29, -5945.18)" d="M 2586.19 6006.27 C 2619.93 6040.01 2674.64 6040.01 2708.38 6006.27 C 2742.13 5972.52 2742.13 5917.820000000001 2708.38 5884.080000000001 C 2674.6400000000003 5850.340000000001 2619.9300000000003 5850.340000000001 2586.19 5884.080000000001 C 2552.4500000000003 5917.820000000001 2552.4500000000003 5972.530000000001 2586.19 6006.27" stroke-linecap="round" />
</g>
</svg>